<?xml version="1.0" encoding="UTF-8"?>
<svg id="Layer_1" data-name="Layer 1" xmlns="http://www.w3.org/2000/svg" viewBox="0 0 139.35 89.18">
  <defs>
    <style>
      .cls-1 {
        stroke-width: 0px;
      }
    </style>
  </defs>
  <path class="cls-1" d="M34.64,84.74c-.65-4.82-1.28-9.45-1.9-14.09-.78-5.79-1.63-11.57-2.31-17.38-.81-6.89.26-13.54,2.93-19.92,4.48-10.71,12.44-17.76,23.2-21.78,1.23-.46,1.91-.93,1.53-2.35-.14-.54-.01-1.17.07-1.74.38-2.61.88-3.04,3.5-3.04,5.77,0,11.53.04,17.3-.03,1.22-.02,1.91.41,2.11,1.51.3,1.65.48,3.32.73,5.14,1.74.76,3.86,1.52,5.83,2.57,11.83,6.28,18.83,16.03,21.12,29.26.9,5.21.21,10.3-.45,15.42-.92,7.09-1.9,14.17-2.85,21.25-.19,1.43-.32,2.86-.61,4.27-.07.36-.62.64-1,.89-.16.1-.44.02-.66.02-22.3,0-44.59,0-66.89,0-.49,0-.98,0-1.63,0ZM47.82,53.81c.04-.1.07-.21.11-.31-3.81-1.39-7.62-2.77-11.43-4.16.03-.08.06-.17.08-.25,3.95.95,7.91,1.9,11.86,2.85l.1-.27c-3.71-1.82-7.41-3.63-11.12-5.45l.1-.24c3.76,1.34,7.51,2.68,11.27,4.02.06-.11.11-.23.17-.34-3.33-2.09-6.66-4.19-9.99-6.28.04-.08.08-.16.13-.24,3.27,1.57,6.55,3.14,9.82,4.71.1-.15.21-.3.31-.45-2.81-2.23-5.62-4.45-8.42-6.68.05-.08.11-.16.16-.24,2.67,1.65,5.35,3.3,8.02,4.95.1-.09.21-.18.31-.27-.39-.6-.72-1.25-1.2-1.78-1.74-1.94-3.53-3.84-4.7-5.1,1.4,1.08,3.51,2.72,5.8,4.5-.07-3.43-3.11-4.79-4.47-7.57,1.55,1.46,2.85,2.68,4.2,3.94.74-2.33-.46-3.96-1.37-5.68.44.47.89.94,1.57,1.66,0-3.45.03-6.54-.02-9.63-.01-.88.23-1.44,1.09-1.76,2.44-.89,4.84-1.92,7.31-2.72,1.95-.62,3.98-.98,5.95-1.45.24-2.59.23-2.58-1.76-3.94-.52-.35-1.02-.76-1.42-1.23-.54-.62-1.02-.76-1.86-.5-14.85,4.69-25.46,18.96-25.32,34.49.04,4.21.7,8.42,1.22,12.61.86,6.91,1.83,13.8,2.77,20.84,3.81,0,7.59.02,11.36-.05.23,0,.63-.66.64-1.02.07-1.71.11-3.43-.01-5.13-.04-.6-.47-1.31-.94-1.73-1.41-1.25-3.08-2.23-4.37-3.58-3.34-3.52-4.5-7.83-4.25-12.79h7.65v-.23c-3.9-.53-7.81-1.06-11.71-1.59.01-.05.02-.11.04-.16h12.01c0-.05.02-.1.03-.16-4.01-.99-8.03-1.98-12.04-2.96.02-.08.04-.16.05-.24,4.08.54,8.17,1.07,12.25,1.61ZM91.6,53.49c.02.11.05.21.07.32,4.08-.53,8.16-1.07,12.24-1.6.02.08.03.16.05.24-4.01.99-8.02,1.97-12.03,2.96.01.05.03.1.04.15h12.03c0,.06.02.11.03.17-3.91.53-7.81,1.06-11.72,1.6,0,.11,0,.21.01.32h8.12c-.2,1.91-.24,3.62-.58,5.28-.98,4.89-3.9,8.39-8.1,10.94-.48.29-1.12.84-1.15,1.3-.12,2.19-.05,4.38-.05,6.63h11.68c.17-1.2.34-2.35.5-3.5.96-7.22,1.84-14.45,2.9-21.66.89-6.04,1.06-12.01-.74-17.91-3.73-12.23-11.71-20.4-23.7-24.7-.45-.16-1.14-.06-1.55.19-1.03.63-1.93,1.45-2.93,2.13-1.08.72-.84,1.77-.61,2.68.1.39.86.8,1.37.89,4.02.68,7.83,1.96,11.55,3.61,1.12.5,1.63,1.1,1.57,2.42-.12,2.9-.04,5.81-.04,8.72.12.07.25.15.37.22.41-.45.81-.9,1.22-1.35-1.25,1.54-1.92,3.22-1.43,5.47,1.23-1.14,2.31-2.15,3.47-3.23-.78,2.45-3.86,3.53-3.58,6.76,1.97-1.51,3.71-2.86,5.46-4.2-1.41,1.65-2.91,3.17-4.36,4.75-.52.57-.89,1.28-1.33,1.92.12.1.25.2.37.3,2.56-1.59,5.12-3.17,7.67-4.76-.22.55-.58.89-.96,1.19-2.02,1.59-4.05,3.15-6.06,4.76-.35.28-.58.7-.87,1.06.09.07.17.15.26.22,3.18-1.53,6.35-3.06,9.53-4.59.05.08.09.17.14.25-3.28,2.07-6.57,4.14-9.85,6.2.06.12.13.23.19.35,3.36-1.19,6.71-2.39,10.07-3.58.04.09.08.19.12.28-3.31,1.66-6.63,3.32-9.94,4.97.04.09.07.19.11.28,3.94-.95,7.88-1.89,11.82-2.84.02.08.05.17.07.25-3.82,1.39-7.64,2.77-11.46,4.16ZM69.8,64.92c.06,0,.13,0,.19,0,.14,2.17.29,4.35.43,6.52.09,0,.18,0,.26,0,.35-2.09.71-4.18,1.06-6.26.08,0,.15.02.23.03-.1,2.21-.2,4.42-.3,6.63l.2.03c.58-2.05,1.17-4.09,1.75-6.14.08.02.16.04.24.06-.3,2.01-.6,4.02-.89,6.03l.24.06c.8-1.98,1.6-3.96,2.4-5.94.07.03.14.05.21.08-.5,1.91-.99,3.82-1.49,5.73.1.04.21.08.31.12.94-1.76,1.88-3.51,2.82-5.27.07.03.14.06.21.09-.66,1.76-1.32,3.52-1.97,5.28.11.06.21.12.32.17,1.02-1.47,2.05-2.94,3.07-4.42.07.04.14.08.21.13-.68,1.37-1.37,2.74-2.05,4.1.14.11.27.22.41.32,1.04-1.19,2.09-2.39,3.13-3.58.06.05.13.09.19.14-.67,1.05-1.33,2.1-2,3.16.13.13.26.26.39.4,1.05-.86,2.1-1.71,3.15-2.57.03.03.07.06.1.09-.52.68-1.04,1.36-1.64,2.15,1.02,0,1.83,0,2.65,0,2.44,0,4.93.59,7.2-.92,2.75-1.83,4.78-4.22,5.86-7.35.35-1.02.51-2.11.77-3.22h-55.04c.39,3,1.32,5.74,3.45,7.81,1.46,1.42,3.11,3.1,4.95,3.56,2.47.61,5.21.15,8.03.15-.71-.91-1.29-1.65-1.87-2.39,1.53.45,1.87,2.51,3.91,2.43-.64-1.02-1.18-1.89-1.72-2.75.07-.04.14-.08.21-.13.94,1,1.87,2.01,2.81,3.01.13-.1.25-.2.38-.3-.67-1.32-1.34-2.64-2.01-3.96.09-.04.17-.09.26-.13.98,1.42,1.96,2.85,2.94,4.27l.36-.2c-.56-1.49-1.12-2.97-1.68-4.46.08-.03.17-.07.25-.1.84,1.5,1.67,3,2.51,4.49.1-.04.19-.09.29-.13-.45-1.73-.9-3.45-1.35-5.18.07-.02.14-.04.21-.07.74,1.75,1.48,3.51,2.23,5.26.09-.03.17-.06.26-.08-.3-1.97-.59-3.94-.89-5.91.08-.02.16-.03.24-.05.58,2.04,1.16,4.09,1.75,6.13l.23-.03c-.11-2.23-.21-4.46-.32-6.69.07,0,.14,0,.21-.01.38,2.18.76,4.37,1.14,6.55.08,0,.15-.02.23-.03.13-2.22.26-4.45.39-6.67ZM76.24,22.37c-.49,2.59-.15,4.22,2.1,5.64,3.93,2.47,5.82,6.38,6.08,11.02.44,7.89-5.83,14.85-13.44,15.25-9.29.49-15.68-6.65-15.71-14.37-.02-5.48,2.39-9.77,7.07-12.73.48-.31,1.08-.81,1.16-1.29.18-1.04.05-2.13.05-3.31-3.63.56-6.96,1.55-10.22,2.87-1.09.44-1.46,1.05-1.46,2.22.04,9.5.02,19.01.02,28.51,0,.43,0,.87,0,1.33.39.04.6.07.82.07,11.31,0,22.61,0,33.92.02,1.03,0,1.17-.44,1.17-1.3-.02-9.64-.02-19.28,0-28.92,0-.96-.29-1.49-1.23-1.77-1.2-.36-2.36-.88-3.56-1.25-2.22-.68-4.45-1.31-6.79-1.99ZM87.61,75.11h-35.62c0,1.76.07,3.43-.02,5.08-.06,1.19.23,1.62,1.54,1.61,10.91-.06,21.81-.03,32.72-.03.44,0,.88-.04,1.39-.06v-6.6ZM80.57,43.99c2.66-3.81-.52-13.34-4.43-13.91-1,3.7-2.96,5.55-6.05,5.72-3.07.16-4.87-1.39-6.65-5.73-4.64,2.45-6.82,9.53-4.34,13.98,1.79-1.17,3.59-2.34,5.6-3.65-.03.65-.05.97-.06,1.21.49-.54.98-1.07,1.47-1.6.12.09.24.19.37.28-.08.69-.17,1.39-.29,2.47.53-1.26.9-2.15,1.27-3.04.15.05.29.1.44.15v3.29c.87-1.05.15-2.65,1.58-3.83.15,1.82.26,3.23.38,4.65.14-.7.16-1.4.2-2.1.04-.74.09-1.48.15-2.44,1.42.71.75,2.07,1.51,3.02v-2.74c.15-.05.3-.1.45-.14.34.7.69,1.4,1.16,2.36v-1.85c.19-.16.37-.32.56-.49.35.49.71.98.92,1.29.31-.05.72-.24.96-.12,1,.52,1.96,1.11,2.9,1.74.66.44,1.27.98,1.9,1.47ZM73.8,13.82c.09.11.18.23.27.34.49-.29.96-.63,1.48-.85,2.41-1.04,3.56-2.8,3.14-5.1-.07-.37-.62-.94-.96-.95-5.17-.07-10.34-.04-15.51-.07-.96,0-1.23.49-1.32,1.31-.18,1.71,1,4.37,3.12,5.01.07-.19.14-.39.14-.39.58.35,1.17.7,2,1.2-.07-.97-.11-1.47-.14-1.81.42.5.89,1.07,1.37,1.63.25-.63.49-1.25.76-1.94.08.41.09.87.28,1.24.15.29.52.48.79.71.19-.25.46-.47.54-.75.11-.39.08-.81.12-1.22.29.37.26.77.38,1.11.11.32.39.58.59.86.25-.26.59-.48.74-.79.17-.36.18-.8.27-1.2.24.38.2.74.3,1.06.1.33.33.62.5.93.26-.25.58-.47.78-.77.2-.31.28-.71.42-1.06.06.02.11.04.17.07-.07.48-.13.97-.2,1.45ZM66.47,17.09c0,4.14-.04,8.14.02,12.14.03,2.26,1.48,3.75,3.42,3.7,1.93-.05,3.36-1.64,3.37-3.81.02-3.29,0-6.57,0-9.86,0-.7,0-1.41,0-2.17h-6.81Z"/>
</svg>