<?xml version="1.0" encoding="UTF-8"?>
<svg id="Layer_1" data-name="Layer 1" xmlns="http://www.w3.org/2000/svg" viewBox="0 0 1024 768">
  <defs>
    <style>
      .cls-1, .cls-2 {
        stroke-width: 0px;
      }

      .cls-2 {
        fill: #fff;
      }
    </style>
  </defs>
  <rect class="cls-2" x="-131.23" y="-106.37" width="1269.14" height="1006.51"/>
  <g>
    <path class="cls-1" d="M443.35,378.51c-4.05-16.87-13.97-28.97-29.82-36.12-1.72-.78-3.53-1.37-5.32-2.06,0-.16-.01-.34.03-.49.68-2.57.25-4.99-.9-7.33-.27-.55-.58-.75-1.21-.75-6.12.03-12.24.02-18.36.02-2.53,0-5.05-.01-7.58.02-.28,0-.7.15-.81.37-1.08,1.95-1.7,4.02-1.39,6.28.08.6.18,1.2.25,1.66-21.92,7.9-34.17,23.27-36.74,46.37v5.97h0c0,.08,0,.16,0,.24,0,.07.01.14.02.21,1.92,14.45,3.83,28.9,5.75,43.36h91.52c.09-.72.17-1.38.26-2.04.88-6.52,1.77-13.04,2.64-19.57.76-5.69,1.45-11.39,2.26-17.07.92-6.4.9-12.77-.61-19.05ZM381.62,335.92c.01-.42.22-.65.75-.65,7.24.02,14.47.01,21.71.03.25,0,.65.23.72.44.97,3.02-.96,6.9-3.98,7.98.05-.31.1-.59.15-.88-.36,1.42-1.45,1.51-2.73,1.51.12-.86.24-1.67.36-2.48-.04,0-.07-.02-.11-.03-.16.56-.39,1.11-.48,1.69-.11.69-.41.98-1.11.87-.29-.05-.6,0-.98,0,.06-1.11.12-2.14.18-3.16-.04,0-.08,0-.11-.01-.18,1.03-.36,2.06-.54,3.12h-1.75c-.06-1.11-.13-2.21-.19-3.32h-.08c-.08,1.08-.16,2.16-.25,3.29h-1.73c-.15-.83-.3-1.69-.46-2.56-.03,0-.06,0-.09,0v2.56h-1.77c-.21-.72-.43-1.45-.65-2.19-.04,0-.09.02-.13.03.1.7.2,1.41.32,2.25-.64-.08-1.34,0-1.81-.28-.45-.29-.66-.96-1.01-1.52.09.42.17.8.26,1.21-2.07-.48-4.14-2.72-4.44-4.92-.13-.98-.04-2-.01-2.99ZM416.78,400.05v1.11h-47.04c0-.36,0-.66,0-.96,0-13.13,0-26.27-.02-39.4,0-.74.25-1.06.9-1.36,4.55-2.02,9.27-3.46,14.2-4.18.08-.01.16,0,.33,0,0,1.68.02,3.36-.03,5.03,0,.22-.39.49-.65.64-3.36,1.83-6,4.37-7.86,7.73-4.5,8.12-2.3,18.4,5.17,24.12,8.79,6.74,22.02,4.41,27.66-5.13,5.24-8.88,2.87-19.51-5.16-25.29-.77-.55-1.63-.99-2.42-1.51-.22-.15-.52-.42-.52-.64-.04-1.65-.02-3.3-.02-5,4.82.67,9.34,2.06,13.76,3.85,1.35.55,1.75,1.23,1.75,2.68-.07,12.77-.04,25.54-.04,38.3ZM401.37,364.73c5.57,3.04,9.39,11.2,6.1,18.94-1.47-1.17-2.95-2.35-4.42-3.52-.08.06-.15.12-.23.18.39,1.03.78,2.06,1.17,3.09l-.11.05c-.48-.91-1.03-1.79-1.41-2.74-.45-1.14-1.35-1.55-2.54-1.88.52,1.93,1.02,3.77,1.51,5.6-.04.01-.08.03-.13.04-.69-1.76-1.41-3.51-2.06-5.28-.26-.73-.72-1.01-1.57-.98.36,2.3.72,4.58,1.08,6.86-.05.01-.09.02-.14.03-.59-2.16-1.2-4.31-1.76-6.47-.16-.63-.45-.91-1.2-.74.13,2.58.27,5.17.41,7.76-.04,0-.08.01-.12.02-.3-1.78-.59-3.56-.89-5.34-.11-.66-.27-1.32-.31-1.99-.04-.69-.38-.79-1-.61-.15,2.75-.29,5.51-.44,8.26-.03,0-.07,0-.1,0-.16-2.74-.32-5.47-.48-8.19-.84-.34-.95.16-1.04.74-.35,2.23-.7,4.46-1.23,6.68.12-2.44.24-4.87.36-7.3-.75-.18-1.04.1-1.22.79-.52,2.08-1.12,4.14-1.84,6.18.35-2.2.69-4.39,1.04-6.6-.95,0-1.42.42-1.71,1.29-.54,1.61-1.22,3.17-1.98,4.72.46-1.73.92-3.45,1.41-5.29-1.2.37-2.15.76-2.59,1.93-.31.83-.8,1.59-1.35,2.33.34-.91.69-1.83,1.03-2.74-.07-.06-.13-.13-.2-.19-1.41,1.18-2.83,2.36-4.29,3.58-3.27-7.04-.31-15.7,6-19.23.26,2.73,1.41,4.94,3.73,6.44,1.46.94,3.05,1.43,4.78,1.29,4.26-.34,6.9-3.01,7.71-7.71ZM388.69,347.91h9.04c.02.3.05.54.05.79,0,5.16,0,10.32,0,15.48,0,2.33-1.31,4.09-3.39,4.63-2.74.71-5.61-1.2-5.67-4.06-.12-5.57-.04-11.15-.04-16.83ZM366.24,432.73h-15.89c-.26-1.9-.51-3.79-.76-5.67-.53-3.97-1.05-7.94-1.58-11.91-.53-4-1.09-7.99-1.61-11.99-.43-3.33-.86-6.67-1.21-10.01-.38-3.67-.19-7.35.4-10.98,1.31-8.17,4.46-15.58,9.58-22.09,6.28-7.99,14.31-13.46,24.03-16.44.45-.14.72-.11,1.01.27,1.15,1.5,2.63,2.57,4.38,3.28.23.09.51.4.52.61.05,1.26.02,2.52.02,3.81-1.47.28-2.9.54-4.32.83-4.88,1.01-9.51,2.72-13.97,4.91-.48.24-.62.52-.62,1.03.02,4.18.01,8.36.01,12.55v1.18c-.84-.98-1.52-1.77-2.2-2.56-.04.02-.08.05-.12.07.54.81,1.04,1.65,1.62,2.42.54.71.77,1.44.71,2.33-.06.97-.01,1.94-.01,3.17-1.99-1.94-3.8-3.71-5.62-5.48-.03.03-.07.06-.1.09,1.18,1.43,2.36,2.86,3.54,4.29.61.73,1.25,1.44,1.82,2.21.2.27.31.65.34.98.05.67.02,1.34.02,2.24-2.95-2.3-5.72-4.46-8.5-6.62l-.08.07c.15.17.3.35.46.5,2.38,2.3,4.73,4.64,7.16,6.88.84.78,1.16,1.57.86,2.76-3.68-2.3-7.34-4.58-11-6.87-.03.04-.05.08-.08.12,2.15,1.69,4.3,3.37,6.45,5.06,1.32,1.04,2.63,2.09,3.99,3.09.58.43.92.88.65,1.76-4.2-2.03-8.4-4.06-12.59-6.09-.03.06-.07.13-.1.19,1.02.64,2.03,1.28,3.05,1.91,3.04,1.9,6.09,3.79,9.12,5.7.29.18.49.52.73.79-.07.1-.15.19-.22.29-4.95-1.77-9.9-3.54-14.85-5.3-.02.05-.04.11-.07.16,1.77.86,3.54,1.72,5.31,2.58,3.02,1.47,6.05,2.93,9.06,4.4.26.13.48.35.72.53-.04.09-.09.18-.13.27-5.51-1.35-11.02-2.69-16.54-4.04-.02.05-.03.1-.05.14,5.53,2,11.07,4,16.6,6.01-.02.09-.04.19-.06.28-5.98-.79-11.96-1.57-17.94-2.36,0,.04-.01.07-.02.11,5.98,1.45,11.97,2.91,17.95,4.36,0,.09-.02.17-.02.26-5.9-.14-11.81-.29-17.71-.43,0,.06-.01.12-.02.18,5.94.79,11.88,1.58,17.82,2.37,0,.09-.01.18-.02.27h-12.48c-.08,2.34.03,4.54.55,6.7,1.58,6.58,5.36,11.49,11.31,14.72.28.15.65.48.65.73.04,3.11.03,6.22.03,9.39ZM416.71,432.77h-46.91v-9.02h46.91v9.02ZM418.05,420.15c-2.46.02-4.92,0-7.55,0,.4-.43.7-.75.99-1.06-.01-.02-.03-.04-.04-.06-.58.38-1.12.91-1.75,1.09-.67.19-1.44.04-2.35.04.84-1.03,1.59-1.94,2.33-2.86-.03-.04-.07-.07-.1-.11-.7.68-1.45,1.31-2.07,2.05-.71.86-1.55,1.09-2.69.83.92-1.4,1.83-2.78,2.74-4.17-.05-.04-.1-.07-.14-.11-.99,1.19-2,2.35-2.95,3.57-.48.61-.97.98-1.87.68.98-1.89,1.95-3.78,2.93-5.67-.05-.03-.1-.06-.15-.08-1.17,1.75-2.35,3.5-3.49,5.27-.32.49-.65.74-1.28.49.86-2.23,1.73-4.46,2.59-6.68-.05-.02-.11-.05-.16-.07-.63,1.2-1.26,2.39-1.89,3.59-.48.92-.93,1.85-1.44,2.76-.14.25-.46.41-.7.61-.07-.06-.15-.11-.22-.17.72-2.67,1.45-5.34,2.17-8.02-.04-.02-.09-.03-.13-.05-.57,1.44-1.14,2.88-1.7,4.32-.43,1.09-.84,2.19-1.29,3.28-.1.23-.33.41-.51.61l-.22-.15c.46-2.86.91-5.72,1.37-8.58-1.05,2.85-1.62,5.84-2.62,8.7-.12-.02-.23-.05-.35-.07.15-3.03.3-6.06.44-9.08-.71,3.02-1.05,6.11-1.66,9.14l-.36-.05c-.19-3.26-.37-6.51-.56-9.77-.03,0-.06,0-.09,0l-.53,9.77c-.11.01-.22.02-.34.04-.7-3.08-1.01-6.23-1.73-9.32.16,3.09.33,6.18.49,9.27-.09.03-.18.06-.27.1-.12-.25-.29-.48-.37-.74-.69-2.45-1.35-4.9-2.03-7.36-.07-.24-.14-.48-.34-.69.46,2.89.93,5.78,1.39,8.67-.09.05-.19.09-.28.14-.16-.23-.37-.43-.47-.68-.84-2.1-1.66-4.21-2.5-6.32-.12-.31-.26-.61-.39-.91-.05.02-.1.03-.15.05.7,2.55,1.39,5.1,2.09,7.65-.57.33-.76-.04-.96-.43-1-1.94-2.02-3.87-3.03-5.8-.14-.27-.3-.54-.56-.75.91,2.32,1.82,4.64,2.74,7.01-.6.23-.93.06-1.26-.44-1.15-1.79-2.35-3.54-3.68-5.23.98,1.88,1.95,3.76,2.96,5.7-.76.19-1.28.1-1.77-.55-.97-1.29-2.05-2.5-3.23-3.65.91,1.38,1.81,2.76,2.76,4.2-1.05.2-1.89.15-2.55-.7-.6-.77-1.28-1.48-1.93-2.22-.1.09-.2.18-.29.27.71.86,1.41,1.73,2.23,2.73-.87,0-1.63.14-2.29-.04-.66-.18-1.22-.69-2.01-1.17.43.45.72.76,1.1,1.16-.32.02-.55.05-.79.06-2.05,0-4.1.02-6.15,0-.4,0-.84-.09-1.2-.27-5.94-2.91-9.41-7.67-10.56-14.16-.05-.27-.03-.55-.05-.91h72.03c-.14,1.92-.62,3.74-1.37,5.49-1.9,4.37-5.01,7.58-9.32,9.62-.2.09-.42.22-.62.22ZM440.75,394.63c-.99,7.72-2.02,15.44-3.04,23.15-.63,4.8-1.26,9.61-1.89,14.41-.02.19-.09.37-.14.58h-15.35c-.01-.31-.04-.6-.04-.9,0-2.64.02-5.28-.02-7.91-.01-.69.22-1.03.82-1.35,5.6-2.97,9.31-7.52,11.08-13.61.71-2.44,1-5.55.73-7.77h-12.53c0-.12-.02-.23-.03-.35,5.85-.78,11.71-1.55,17.56-2.33,0-.06,0-.12,0-.17-5.84.14-11.67.29-17.51.43-.01-.1-.03-.2-.04-.29,5.91-1.44,11.82-2.88,17.74-4.32,0-.03-.01-.07-.02-.1-5.9.79-11.8,1.57-17.7,2.36-.03-.12-.07-.23-.1-.35,5.47-1.98,10.95-3.96,16.42-5.94-.01-.05-.03-.09-.04-.14-5.4,1.32-10.81,2.64-16.21,3.96-.06-.07-.13-.15-.19-.22.22-.21.41-.5.67-.63,3.87-1.89,7.75-3.76,11.63-5.64.83-.4,1.66-.81,2.42-1.37-4.85,1.74-9.71,3.49-14.57,5.23-.3-.6,0-.89.46-1.17,3.83-2.38,7.66-4.77,11.48-7.16.25-.16.5-.33.67-.65-4.19,2.02-8.38,4.05-12.64,6.11-.16-.71-.14-1.21.49-1.7,3.47-2.66,6.9-5.38,10.34-8.07-.03-.04-.05-.08-.08-.13-3.56,2.21-7.11,4.42-10.76,6.69-.12-1.01-.22-1.8.61-2.57,2.43-2.24,4.78-4.58,7.16-6.88.17-.16.33-.34.41-.6-2.7,2.1-5.4,4.2-8.19,6.38-.14-1.61-.21-2.96,1-4.21,1.59-1.63,2.95-3.49,4.4-5.25-.1-.1-.2-.19-.3-.29-1.64,1.78-3.27,3.56-4.91,5.35-.08-.05-.16-.1-.24-.15,0-1.42-.1-2.84.05-4.24.06-.6.65-1.15,1.01-1.71.32-.49.65-.97.87-1.55-.59.69-1.18,1.37-1.96,2.27v-1.1c0-4.1-.01-8.19.01-12.29,0-.57-.19-.83-.68-1.08-5.06-2.53-10.37-4.3-15.94-5.32-.77-.14-1.54-.25-2.37-.38,0-1.32-.02-2.58.02-3.84,0-.22.29-.52.51-.61,1.7-.73,3.22-1.7,4.33-3.22.28-.38.57-.41,1-.28,5.61,1.76,10.76,4.41,15.39,8.05,9.06,7.13,14.84,16.35,17.39,27.58,1.14,5.04,1.47,10.15.81,15.29Z"/>
    <g>
      <path class="cls-1" d="M476.9,391.57c1.26-1.79,2.46-3.47,3.65-5.17,1.73-2.46,3.46-4.92,5.16-7.4.39-.57.8-.87,1.54-.84,1.41.06,2.82.02,4.32.02v28.62h-4.45v-21.6c-.08-.02-.16-.05-.24-.07-1.46,2.03-2.92,4.07-4.39,6.1-1.56,2.17-3.11,4.35-4.69,6.51-.76,1.04-1.31.99-2.05-.06-2.95-4.18-5.92-8.35-9.05-12.78v21.88h-4.57v-28.59c1.7,0,3.37-.03,5.02.03.27.01.57.41.77.7,2.89,4.08,5.77,8.18,8.65,12.27.06.09.15.17.34.38Z"/>
      <path class="cls-1" d="M626.05,378.16v28.67c-1.05,0-2.05.07-3.03-.04-.36-.04-.74-.42-1-.75-5.01-6.2-10-12.42-14.99-18.63-.15-.19-.33-.35-.65-.7v20.01h-4.63v-28.67c1.03,0,2.03-.07,3.01.03.36.04.75.41,1.01.73,4.85,6.05,9.67,12.11,14.51,18.17.34.43.7.85,1.22,1.47v-20.3h4.57Z"/>
      <path class="cls-1" d="M624.9,363.81h-21.08v-28.61h20.99v4.37h-16.38v7.77h15.71v4.26h-15.69v7.73h16.44v4.49Z"/>
      <path class="cls-1" d="M519.61,349.88c-.09,4.62-1.58,8.8-5.52,11.8-3.01,2.29-6.52,2.84-10.22,2.72-5.99-.2-10.83-3.56-12.7-9.26-1.85-5.64-1.22-11.01,2.65-15.71,2.13-2.59,4.98-4.1,8.28-4.6,5.1-.78,9.79.1,13.52,3.97,2.92,3.02,3.96,6.79,3.99,11.08ZM505.02,360.2c4.81-.06,7.94-2.17,9.4-6.39.76-2.19.85-4.45.41-6.71-1.68-8.68-10.39-9.91-15.4-6.92-2.97,1.77-4.22,4.6-4.58,7.88-.65,5.88,2.57,12.29,10.17,12.14Z"/>
      <path class="cls-1" d="M653.78,394.59h-15.67v7.71h16.42v4.45h-21.07v-28.64c.39-.02.75-.05,1.11-.05,6.25,0,12.5.02,18.75-.02.97,0,1.35.23,1.25,1.24-.11,1.03.31,2.5-.23,2.98-.61.56-2.01.29-3.07.3-3.98.02-7.96,0-11.94,0h-1.24v7.7h15.7v4.32Z"/>
      <path class="cls-1" d="M581.24,347.36h15.71v4.25h-15.71v7.71c.4,0,.83,0,1.25,0,4.72,0,9.45.02,14.17-.02.92,0,1.27.25,1.19,1.19-.1,1.07.32,2.59-.23,3.09-.63.57-2.09.29-3.18.3-5.47.02-10.94,0-16.4,0-.44,0-.87,0-1.38,0v-28.7h20.95v4.39h-16.37v7.79Z"/>
      <path class="cls-1" d="M558.33,406.74v-28.59h4.47v12.4h15.25v-12.4h4.58v28.59h-4.54v-11.76h-15.17v11.76h-4.59Z"/>
      <path class="cls-1" d="M526.42,406.83c-1.48,0-2.86.05-4.23-.03-.33-.02-.76-.39-.92-.72-.72-1.46-1.39-2.95-2.03-4.45-.27-.63-.63-.86-1.33-.86-4.58.04-9.15.03-13.73,0-.71,0-1.04.21-1.3.87-.6,1.51-1.28,3-1.99,4.46-.16.32-.59.69-.92.7-1.33.08-2.67.03-4.24.03.6-1.4,1.14-2.67,1.7-3.92,3.54-7.91,7.1-15.81,10.62-23.73.36-.82.79-1.28,1.73-1.13.44.07.9.08,1.34,0,1.86-.34,2.75.45,3.5,2.19,3.79,8.74,7.75,17.41,11.65,26.1.04.1.06.2.15.48ZM511.07,382.93c-2.08,4.68-4.04,9.09-6.04,13.61h12.09c-2-4.51-3.96-8.93-6.04-13.61Z"/>
      <path class="cls-1" d="M681.48,381.95c-1.46.98-2.57,1.72-3.72,2.49-2.96-3.26-6.59-3.79-10.58-2.61-.81.24-1.64.77-2.23,1.38-1.79,1.84-1.12,4.54,1.42,5.41,1.7.58,3.53.79,5.28,1.22,2.04.5,4.13.91,6.09,1.66,3.02,1.16,4.63,3.5,4.75,6.76.13,3.45-1.37,6.04-4.42,7.63-3.14,1.64-6.53,1.83-9.98,1.47-2.64-.27-5.1-1.05-7.07-2.9-1.04-.98-1.89-2.15-2.93-3.36,1.27-.86,2.36-1.6,3.53-2.4,1.29,1.75,2.78,3.24,4.84,3.97,3.26,1.16,6.48,1.12,9.55-.62,1.49-.84,2.01-2.22,1.83-3.88-.16-1.48-1.04-2.55-2.38-2.95-2.18-.66-4.45-1.04-6.67-1.6-1.75-.45-3.54-.85-5.19-1.54-2.66-1.12-4.04-3.22-4.15-6.17-.1-2.95,1.01-5.32,3.56-6.7,4.81-2.62,9.83-2.68,14.74-.29,1.34.65,2.38,1.91,3.73,3.04Z"/>
      <path class="cls-1" d="M553.1,381.82c-.97,1.07-1.89,2.08-2.81,3.09-5.2-4.64-12.43-3.16-15.43.23-3.51,3.96-3.54,10.99-.05,14.87,3.05,3.39,10.24,4.79,15.49.18,1.02,1.01,2.04,2.02,3.07,3.04-4.33,5.23-15.45,5.68-20.96.74-6.1-5.48-6.46-16.08-.74-21.99,5.62-5.81,16-5.85,21.43-.17Z"/>
      <path class="cls-1" d="M484.85,357.07c.98,1,1.97,2.01,2.96,3.02-2.84,3.52-9.06,5.35-15.34,3.75-6.32-1.61-9.71-6.52-10.31-12.39-.78-7.62,3.13-13.5,8.55-15.63,6.24-2.45,13.08-1.08,16.74,2.97-.91,1.03-1.81,2.04-2.76,3.11-2.66-2.33-5.66-3.32-9.1-2.86-2.64.35-4.93,1.38-6.63,3.48-3.31,4.08-3.06,10.96.42,14.59,3.22,3.36,10.2,4.57,15.48-.05Z"/>
      <path class="cls-1" d="M571.1,335.2v4.38h-15.57v8.73h14.8v4.26h-14.82v11.24h-4.62v-28.61h20.22Z"/>
      <path class="cls-1" d="M525.18,335.2h20.19v4.36h-15.55v8.74h14.77v4.29h-14.79c-.03.51-.06.91-.07,1.3,0,3.01-.02,6.03,0,9.04,0,.71-.2,1-.94.97-1.18-.05-2.37-.01-3.62-.01v-28.68Z"/>
      <path class="cls-1" d="M589.94,378.12h4.46v28.61h-4.46v-28.61Z"/>
      <path class="cls-1" d="M503.86,433.06c-.99.3-1.53-.01-1.9-1.03-.84-2.25-.9-2.23-3.36-2.23-1.3,0-2.6.03-3.9-.01-.61-.02-.97.13-1.14.75-.15.53-.42,1.03-.64,1.54q-.51,1.16-1.98.95c1.17-2.74,2.32-5.46,3.48-8.17.67-1.57,1.31-3.15,2.04-4.69.14-.3.64-.57.98-.59.34-.01.9.23,1.02.51,1.84,4.2,3.62,8.43,5.41,12.66.04.09,0,.21,0,.32ZM500.47,428.43c-.99-2.37-1.95-4.67-3-7.19-1.05,2.49-2.01,4.79-3.02,7.19h6.02Z"/>
      <path class="cls-1" d="M559.87,419.59c-.02.43-.04.79-.06,1.24h-7.14v4.77h6.57v1.27h-6.57v4.92h7.21v1.28h-8.66v-13.48h8.65Z"/>
      <path class="cls-1" d="M463.24,429.42c1.47,2.36,3.65,3.19,6.06,2.41,1.08-.35,1.85-.97,1.93-2.18.07-1.13-.71-1.66-1.61-2.01-1.62-.63-3.26-1.19-4.89-1.8-1.29-.48-1.98-1.41-2.01-2.78-.03-1.39.61-2.41,1.83-3.07,2.73-1.49,6.08-.57,7.65,2.18-.16.12-.32.26-.5.36-.19.11-.39.19-.57.28-1.79-2.22-3.51-2.73-5.62-1.77-.83.38-1.3.97-1.33,1.88-.03.89.45,1.49,1.24,1.79,1.59.61,3.21,1.13,4.8,1.73,3.34,1.28,2.92,4.58,1.18,5.78-.71.49-1.58.84-2.42,1.03-2.9.65-5.77-.66-6.9-3.16.35-.21.71-.42,1.15-.67Z"/>
      <path class="cls-1" d="M523.39,419.6h1.38v12.26h6.84v1.23h-8.22v-13.49Z"/>
    </g>
  </g>
</svg>