<?xml version="1.0" encoding="UTF-8"?>
<svg id="Layer_1" data-name="Layer 1" xmlns="http://www.w3.org/2000/svg" viewBox="0 0 65 48">
  <defs>
    <style>
      .cls-1 {
        fill: #6d6e71;
        stroke: #6d6e71;
        stroke-miterlimit: 10;
      }
    </style>
  </defs>
  <path class="cls-1" d="M32.35,6.42c1.1.27,1.67,1.11,2.27,1.89,2.24,2.92,3.26,6.24,3.1,9.91-.04.82-.19,1.64-.29,2.49.86-.25,1.64-.67,2.26-1.31,1.05-1.07,1.93-2.36,2.54-3.66,3.36,3.17,5.04,6.96,4.98,11.35-.1,6.89-5.06,12.85-11.78,14.19-9.83,1.96-19.47-6.22-17.36-17.55.49-2.63,1.8-5.06,3.67-6.98,3.19-3.27,6.44-6.47,9.68-9.69.26-.26.65-.41.93-.66ZM26.46,37.21c-.01-.11,0-.13-.02-.17-.68-1.89-.49-3.96.87-5.43,1.67-1.79,3.44-3.47,5.16-5.21,1.48,1.47,2.97,2.94,4.44,4.43,1.25,1.27,1.89,2.8,1.84,4.58-.02.59-.14,1.18-.21,1.75,6.49-3.75,7.34-12.05,4.02-16.71-.45.43-.88.88-1.37,1.28-1.66,1.37-3.59,2.02-5.73,2.02-.46,0-.84-.18-1.12-.55-.35-.47-.31-.96-.12-1.49,1.43-4.15.88-8.01-1.68-11.58-.04-.05-.08-.1-.14-.16-.06.05-.1.08-.14.12-2.92,2.92-5.87,5.82-8.75,8.77-1.26,1.29-2.19,2.89-2.61,4.65-.92,3.85-.31,7.33,1.84,10.34.98,1.37,2.2,2.48,3.7,3.34ZM32.47,30.25c-1.18,1.22-2.44,2.31-3.37,3.68-.29.42-.36.96-.26,1.47.57,2.84,2.55,4.01,5.29,3.15.32-.1.61-.3.81-.56,1.46-1.86,1.44-3.61.15-5.08-.37-.42-.78-.8-1.17-1.19-.47-.47-.94-.95-1.45-1.45Z"/>
</svg>