<?xml version="1.0" encoding="UTF-8"?>
<svg id="Layer_1" data-name="Layer 1" xmlns="http://www.w3.org/2000/svg" viewBox="0 0 90 73">
  <defs>
    <style>
      .cls-1 {
        stroke-width: 0px;
      }
    </style>
  </defs>
  <path class="cls-1" d="M22.06,33.82c.22-.91.52-1.79,1.1-2.55,1.32-1.71,3.53-2.47,5.67-1.91,2.02.52,3.6,2.3,3.89,4.39.49,3.46-2.29,6.43-5.76,6.16-2.38-.19-4.41-2.04-4.82-4.4-.01-.08-.06-.16-.09-.25,0-.48,0-.96,0-1.43Z"/>
  <path class="cls-1" d="M67.94,35.08c-.23.76-.57,1.46-1.22,1.98-1.34,1.08-3.33.89-4.46-.44-1.13-1.33-.99-3.33.31-4.46,1.35-1.18,3.37-1.11,4.49.22.39.46.59,1.08.87,1.63v1.08Z"/>
  <path class="cls-1" d="M32.88,52.55c-2.68,0-4.82-2.16-4.81-4.85,0-2.66,2.2-4.83,4.86-4.82,2.62.02,4.81,2.22,4.81,4.84,0,2.66-2.18,4.83-4.85,4.83Z"/>
  <path class="cls-1" d="M41.78,53.19c0-2.34,1.96-4.31,4.3-4.3,2.35,0,4.3,1.98,4.29,4.32-.02,2.34-1.94,4.26-4.28,4.27-2.36,0-4.31-1.93-4.31-4.29Z"/>
  <path class="cls-1" d="M59.27,51.47c-2.06,0-3.77-1.68-3.78-3.73-.01-2.03,1.71-3.76,3.75-3.78,2.04-.02,3.76,1.69,3.77,3.75,0,2.07-1.67,3.76-3.73,3.77Z"/>
  <path class="cls-1" d="M59.28,18.68c1.48,0,2.66,1.2,2.65,2.69,0,1.47-1.21,2.68-2.68,2.68-1.47,0-2.71-1.25-2.69-2.73.02-1.47,1.23-2.65,2.71-2.64Z"/>
  <path class="cls-1" d="M46.08,13.76c1.18,0,2.14.95,2.14,2.12,0,1.18-.97,2.17-2.15,2.17-1.18,0-2.15-.98-2.14-2.18,0-1.17.97-2.11,2.15-2.11Z"/>
  <path class="cls-1" d="M31.29,21.36c0-.91.7-1.61,1.61-1.61.9,0,1.62.73,1.61,1.62-.01.86-.74,1.59-1.6,1.6-.89,0-1.62-.71-1.62-1.61Z"/>
</svg>